#tb 0: 1/25
#tb 1: 1/25
0,          0,          0,        1,   114063, 0xcf36661e
1,          0,          0,        1,   114063, 0xe3acb1a1
0,          1,          1,        1,   114063, 0x9514fb42
1,          1,          1,        1,   114063, 0x7fa2f7d0
0,          2,          2,        1,   114063, 0x61a3c51b
1,          2,          2,        1,   114063, 0x2fa0beff
0,          3,          3,        1,   114063, 0x3286410f
1,          3,          3,        1,   114063, 0xc64acd71
0,          4,          4,        1,   114063, 0x06e6061a
1,          4,          4,        1,   114063, 0xd73c3e17
0,          5,          5,        1,   114063, 0xa4d308ff
1,          5,          5,        1,   114063, 0xbaf62dc6
0,          6,          6,        1,   114063, 0x2a728a89
1,          6,          6,        1,   114063, 0xc7617f6a
0,          7,          7,        1,   114063, 0x05d64e7c
1,          7,          7,        1,   114063, 0x9b0acb00
0,          8,          8,        1,   114063, 0xd9b02f3e
1,          8,          8,        1,   114063, 0x9b6cdeb8
0,          9,          9,        1,   114063, 0x0dcf85c2
1,          9,          9,        1,   114063, 0xd8bf4123
0,         10,         10,        1,   114063, 0x9bce72b4
1,         10,         10,        1,   114063, 0x833b627c
0,         11,         11,        1,   114063, 0x04e3683a
1,         11,         11,        1,   114063, 0xcf47227a
0,         12,         12,        1,   114063, 0x3ef09279
1,         12,         12,        1,   114063, 0xd9fea8b8
0,         13,         13,        1,   114063, 0x7cfef881
1,         13,         13,        1,   114063, 0x3a8f3772
0,         14,         14,        1,   114063, 0xd81b1291
1,         14,         14,        1,   114063, 0x786a092b
